<svg xmlns="http://www.w3.org/2000/svg" width="512" height="512"><path fill="#fefefe" d="M196.429 88.317c3.934-.242 8.878-.148 12.876-.18 4.136.101 8.51-.266 12.611.36 12.286 1.874 24.655 5.002 36.995 6.288 2.321.241 8.42-1.2 11.008-1.69l16.362-2.992c6.266-1.13 10.743-2.054 17.219-1.907 12.995.295 18.515-2.284 29.285 6.924.744 2.047.433 22.077.443 25.475 7.961 7.435 16.943 16.011 25.079 23.099-1.85 4.806-13.317 30.351-13.254 32.382.329 10.622 5.169 39.861 6.31 50.772-1.125 1.775-6.815 7.346-8.454 9.155-1.082 1.194-7.887 8.34-8.898 8.95-5.219 3.145-15.008 4.807-20.935 6.979-.276.101-1.661.736-1.767.875-1.128 1.493-1.661 4.959-2.037 6.802-.927 4.539-2.276 9.182-2.833 13.732-.181 1.48.648 4.704.86 6.079.513 3.329 3.353 14.453 3.196 16.97-.287 4.604-3.725 17.331-5.567 21.428-1.898 4.504-4.275 9.273-6.667 13.535-.47.839-.998 1.71-1.735 2.342-2.389 2.046-10.482 6.25-13.516 6.999-2.312.571-45.714.542-48.718-.052-3.206-.634-8.869-3.915-11.776-5.664-.925-.557-1.898-1.198-2.57-2.056-1.738-2.22-2.778-5.261-3.953-7.824-1.308-2.854-2.935-5.563-4.146-8.455-1.649-3.936-5.061-16.531-4.969-20.392.16-6.754 4.015-16.134 3.958-22.613-.037-4.158-3.15-16.324-4.258-20.906-5.779-1.926-19.43-4.987-23.606-8.161-2.914-2.215-5.331-5.391-7.946-7.988-3.089-3.067-6.625-6.055-9.171-9.585.474-4.529 1.314-9.669 1.938-14.259l3.058-23.353c.445-3.418 1.571-10.111 1.45-13.43-.031-.868-2.874-7.307-3.356-8.452a1095 1095 0 0 0-6.602-15.651c-.858-2.001-2.738-5.873-2.846-7.855.748-1.97 21.298-20.21 24.551-23.687-.21-7.328-.282-17.827-.015-25.09 2.155-1.706 9.797-6.503 12.396-6.904"/><path fill="#fefefe" d="M410.226 247.809c4.207-.512 15.048 1.362 19.903 1.942 5.658.676 11.66 1.02 17.227 2.188.874.184 1.915.386 2.685.84 2.584 1.527 20.682 16.326 21.666 17.982.533.895.795 2.014.994 3.029.882 4.507 1.291 9.174 1.976 13.722.572 3.799 1.56 7.764 1.789 11.587.063 1.052-.048 2.017-.283 3.042-1.257 5.481-3.816 11.323-5.683 16.665-2.423 6.934-4.504 14.077-7.287 20.875-1.794 4.384-11.63 25.36-13.999 28.155-2.615 3.085-7.806 6.219-11.165 8.722-4.492 3.348-8.971 7.085-13.734 10.02-5.626-1.566-11.827-2.438-17.485-3.992-1.53-.398-2.947-1.147-4.041-2.314-6.819-7.27-13.291-14.855-20.106-22.145-1.355-1.449-4.399-4.595-5.25-6.29-.752-3.09-.581-6.986-.463-10.218.258-7.073-.736-14.773.754-21.685.097-.451 2.277-5.205 2.434-5.46.963-1.553 4.761-12.073 5.622-12.41 1.214 2.014-.383 24.643.95 26.797 2.771 4.479 9.665 12.77 13.189 17.29 1.361 1.79 2.915 3.944 4.463 5.531 8.519.418 20.162.072 28.952.078 2.145-1.552 8.538-8.547 10.689-10.759 3.724-3.829 8.786-8.596 12.16-12.577-2.549-10.887-4.355-23.085-6.752-34.173-2.251-1.725-12.885-6.492-15.864-7.903-5.555-2.631-12.464-6.231-18.114-8.441-5.901 1.003-14.341 3.315-20.391 4.761-4.421 1.056-14.575 3.143-18.286 4.55-11.191 4.243-22.522 9.342-33.74 13.673-4.153-1.654-14.652-5.292-17.905-7.168-1.722-3.746-5.598-18.488-6.628-23.191-.192-.877 1.501-5.563 1.93-6.824 1.29.4 5.076 2.243 6.498 2.889l13.887 6.299c12.794-4.876 25.252-12.11 38.433-15.855 10.307-2.93 20.637-6.5 30.975-9.232M105.39 247.847c1.361-.148 2.691-.268 4.039.113 12.762 3.609 25.545 7.443 38.166 11.521 2.181.705 4.764 2.11 6.937 3.013 7.991 3.32 15.907 7.37 24.024 10.343l20.104-9.135c.534 1.526 2.451 6.264 2.002 7.589-2.049 6.052-3.842 17.211-6.675 22.487-1.943 1.227-15.288 6.182-18.081 7.075-10.704-3.924-21.582-9.569-32.347-13.27-11.669-3.466-23.755-5.73-35.51-8.899-5.583-1.505-9.312 1.321-14.144 3.693l-11.384 5.495c-14.493 6.89-12.1 2.964-15.18 18.949l-4.24 21.796a2159 2159 0 0 0 15.085 15.463c2.022 2.052 5.665 5.957 7.68 7.558 8.765.405 19.899.115 28.826.093 1.018-.926 1.976-2.17 2.865-3.242.684-1.072 2.245-2.88 3.066-4.025 3.74-5.216 8.887-10.72 12.339-15.984q.165-13.931-.025-27.862l5.292 11.712c1.165 2.574 2.499 5.188 3.309 7.898.375 1.253.561 2.54.647 3.843.317 4.845 0 9.827-.006 14.687-.005 3.492.328 7.134.04 10.602-.076.922-.152 1.971-.638 2.783-1.567 2.617-25.115 28.66-27.209 29.702-3.465 1.725-15.341 3.766-19.684 4.716-.219-.138-.44-.272-.654-.416-3.513-2.371-6.854-5.135-10.265-7.66-3.618-2.678-11.487-7.759-14.107-11.044-2.47-3.098-4-7.726-5.749-11.322-2.626-5.404-5.63-10.774-7.887-16.339-2.826-6.967-4.96-14.324-7.432-21.433-1.85-5.322-4.788-11.909-5.712-17.296-.385-2.248 3.291-26.299 4.135-29.219.146-.503.434-.939.76-1.344 2.628-3.273 6.897-6.042 10.166-8.692 2.782-2.255 8.718-7.87 11.629-9.225 2.93-1.363 30.517-4.125 35.818-4.724M318.155 317.075c.113.038.229.07.34.114 5.351 2.132 26.273 15.621 29.619 19.402 1.528 1.726 2.729 3.872 4.007 5.791l6.929 10.323c1.447 2.152 7.116 10.172 7.577 11.934 1.7 6.502 4.882 20.351 5.532 26.525.198 1.876-3.611 21.57-4.586 23.139-2.567 3.194-13.123 19.409-15.966 20.823-7.887 3.924-25.668 13.237-33.497 16.204-3.856-.775-21.328-5.611-23.856-7.095-1.942-1.14-12.907-12.48-14.724-14.793-1.594-2.027-2.022-4.561-2.756-6.975-.81-2.662-1.808-5.371-2.32-8.106-.988-5.28.343-11.517.962-16.8.601-7.886 1.41-21.727 6.253-28.829 1.411-2.068 9.79-6.211 12.742-8.005-1.058 2.551-1.459 5.291-2.351 7.644-3.438 8.979-3.514 17.748-3.271 27.199.051 1.995-.469 8.532.578 9.875 1.426 1.829 4.547 4.584 6.337 6.25 3.304 3.073 6.535 6.771 10.04 9.554 5.456.442 15.457.096 21.232.039 2.873-2.599 13.741-13.281 15.837-15.833 1.782-2.169 4.652-22.113 5.374-25.958-3.305-3.905-7.186-7.908-10.676-11.728-3.636-3.979-7.811-8.93-11.757-12.439-6.583-5.855-15.388-11.746-21.701-17.778 5.989-2.267 5.049-2.196 7.931-8.077 1.96-4 3.983-8.547 6.171-12.4M202.633 317.236l.636.159c1.318 1.316 6.247 13.099 7.724 15.594 1.951 3.293 1.855 3.17 5.977 4.451-7.099 7.873-18.556 13.807-25.503 21.917-5.829 6.804-13.058 13.386-18.401 20.469 2.088 7.432 2.473 18.716 5.126 25.501.414 1.06 14.678 14.661 16.247 15.931 4.626.41 15.958.114 20.846.003 2.973-2.133 15.084-13.926 17.404-16.804-.397-7.667.123-16.565-.255-23.943-.137-2.671-4.414-16.641-5.532-19.534 2.48 1.285 9.712 4.815 11.393 6.397 6.245 5.883 6.817 21.415 7.516 28.998.524 4.897 1.591 12.238 1.312 16.849-.121 2.006-4.177 14.966-5.295 16.209-1.697 1.886-13.306 14.238-14.848 14.777-6.703 2.344-16.785 5.718-23.639 7.074-.053-.013-.537-.127-.604-.159-10.032-4.833-24.37-10.988-33.663-16.508-4.085-4.732-12.219-15.444-15.201-19.991-.931-1.419-4.811-21.527-4.716-22.788.611-8.053 3.39-17.519 4.987-25.534.622-3.122 6.319-10.764 8.271-13.673l6.597-10.023c2.537-3.867 4.081-6.724 8.044-9.318 7.013-4.59 13.726-9.818 21.181-13.684 1.477-.766 2.937-1.57 4.396-2.37M83.807 127.029c1.755-.224 3.538-.041 5.304.089 4.532.242 9.203.786 13.71 1.081 5.612.368 7.443 3.012 11.627 6.14 4.94 3.679 9.964 7.318 14.834 11.084 3.9 3.016 6.15 8.781 8.743 12.981 8.206 13.296 15.178 27.818 20.301 42.529.448 1.288-2.161 16.869-2.507 19.419-3.733-1.493-10.432-3.101-13.386-4.982-4.43-7.747-8.058-19.091-12.363-26.589-1.841-3.207-16.437-25.903-17.571-26.341-7.136-2.754-20.004-7.267-27.612-9.502-2.413 1.332-7.418 5.134-9.83 6.947-3.64 2.735-9.166 6.456-12.452 9.422.2 2.754.243 5.731.335 8.505.036 5.384.076 11.778.454 17.142.895 1.099 4 3.972 5.138 5.077a386 386 0 0 0 11.826 11.135l.255-.021c2.974-.259 20.718-2.544 22.479-3.709 2.111-1.396 12.796-13.629 14.939-16.17-.982 3.084-5.028 16.186-6.543 18.072-2.213 2.754-13.269 15.418-15.853 17.246-3.174.368-6.649.482-9.878.727l-17.15 1.325c-1.028.069-3.598.224-4.42-.138-3.073-1.356-11.604-6.397-13.898-8.405-1.246-3.03-5.002-23.466-4.287-26.329 4.5-18.002 11.414-35.409 19.648-51.975.577-1.16 16.089-13.467 18.157-14.76M423.125 127.104c1.386-.207 3.233-.308 4.593.015 2.574.61 17.685 12.877 19.285 15.429 2.601 4.15 4.25 9.402 6.149 13.921 2.177 5.18 4.646 10.296 6.581 15.568 1.354 3.69 2.281 7.564 3.404 11.33.985 3.303 3.217 8.884 3.338 12.21.124 3.434-2.911 17.918-3.837 21.914-.583 2.519-1.529 3.294-3.667 4.644-2.93 1.851-7.761 5.311-10.895 6.306-.784.249-1.665.296-2.483.292-5.376-.022-10.885-.838-16.247-1.263-4.452-.352-8.966-.186-13.341-1.164-3.124-2.968-14.62-15.334-16.368-18.915-.847-1.736-4.272-12.524-5.577-15.75 2.992 2.59 7.732 8.123 10.45 11.213 1.429 1.624 2.915 3.722 4.862 4.715 2.956 1.507 18.151 3.076 22.339 3.703 2.316-1.699 6.585-6.254 8.898-8.444 2.36-2.235 6.188-5.6 8.138-7.872.307-3.689.249-8.15.429-11.986q.181-6.85.436-13.7c-6.513-5.328-15.276-11.388-22.217-16.39l-1.305.421-13.678 4.564c-3.605 1.181-9.902 2.644-12.899 4.664-2.159 1.455-16.723 24.771-18.508 28.323-3.656 7.272-6.421 15.029-10.146 22.262-.473.916-1.001 1.895-1.845 2.524-2.45 1.822-9.592 3.573-12.806 4.616-.418-5.699-1.717-11.273-2.379-16.936-.145-1.241-.066-2.372.28-3.571.989-3.425 2.811-6.888 4.222-10.175 2.063-4.809 3.948-9.788 6.299-14.461 2.806-5.576 6.188-10.975 9.301-16.389 2.065-3.589 4.062-7.985 6.708-11.159 1.791-2.149 22.826-18.01 25.011-18.752 3.468-1.177 13.194-1.369 17.475-1.707M342.582 46.19l.319.326c-.319 1.684-8.722 14.193-9.63 16.599-1.621 4.295-3.129 15.863-3.31 20.344-6.343-5.458-7.292-5.153-15.173-4.966q-2.641-.03-5.282-.106c.504-2.085 3.883-12.815 4.779-13.602 6.491-5.701 21.758-13.058 28.015-18.354zM169.378 46.41c.16.032.323.05.48.096 1.778.523 27.472 16.791 28.56 18.266 2.184 2.96 3.304 9.596 4.857 13.271l.15.35-4.4.073c-3.826-.064-8.891-.749-11.518 1.54-.625.543-3.56 2.357-4.299 2.646-1.364-1.218-1.852-15.772-2.89-17.886-2.705-5.51-7.623-13.323-10.94-18.355M173.379 88.201c.145.049.388.207.532.291-.187 1.813-.042 4.841-.017 6.81q.061 5.324.034 10.649c-.005 2.004.065 3.989-.223 5.984-.239 1.94-2.004 3.19-3.456 4.346-2.618 2.084-5.243 4.324-8.035 6.176-.497-1.695-.821-2.514-1.536-4.136-1.553-3.728-3.309-8.25-5.078-11.808 1.105-1.452 5.067-5.548 6.575-7.051 3.338-3.328 7.699-8.307 11.204-11.26M336.523 88.046c1.477.423 16.154 15.947 18.31 18.183-1.356 3.66-3.307 8.01-4.831 11.673a78 78 0 0 1-2.166 4.625c-3.198-3.029-8.303-6.431-10.996-9.31-.973-7.21.429-17.763-.317-25.171"/></svg>